# xmcd
#
# Track frame offsets:
#	150
#	13847
#	28232
#	41967
#	52815
#	77290
#	96385
#	107467
#	119917
#	131085
#	143327
#	152910
#
# Disc length: 2205
#
# Revision: 2
# Processed by: cddbd v1.5.1PL0 Copyright (c) Steve Scherf et al.
# Submitted via: EasyCDDAExtractor 6.0.0.1
# Normalized: r1:DSETVAR1
#
DISCID=9e089b0c
DTITLE=Various Artist - Living The Blues - Blues Legends
DYEAR=1999
DGENRE=Blues
TTITLE0=T-Bone Walker - Call It Stormy Monday But Tuesday Is Just As Bad
TTITLE1=Lowell Fulson - Reconsider Baby
TTITLE2=Guitar Slim - The Things That I Used To Do
TTITLE3=Earl King - Those Lonely Lonely Nights
TTITLE4=B.B.King - The Thrill Is Gone
TTITLE5=Buddy Guy - My Time After Awhile
TTITLE6=Wilbert Harrison - Kansas City
TTITLE7=Muddy Waters - You Shook Me
TTITLE8=Howlin' Wolf - Little Red Rooster
TTITLE9=Bobby Bland - I Pity The Fool
TTITLE10=Rosco Gordon - Just A Little Bit
TTITLE11=Etta James - Somethings Got A Hold On Me
EXTD=
EXTT0=
EXTT1=
EXTT2=
EXTT3=
EXTT4=
EXTT5=
EXTT6=
EXTT7=
EXTT8=
EXTT9=
EXTT10=
EXTT11=
PLAYORDER=
